# xmcd CD database file generated by Grip 3.2.0
# 
# Track frame offsets:
#       150
#       12493
#       26010
#       37198
#       49478
#       62810
#       75880
#       87978
#       102540
#       113985
#       127343
#       139870
#       152740
#       166180
# 
# Disc length: 2379 seconds
# 
# Revision: 3
# Processed by: cddbd v1.5.1PL2 Copyright (c) Steve Scherf et al.
# Submitted via: Grip 3.2.0
# 
DISCID=c309490e
DTITLE=Muddy Waters - Trainfare Blues
DYEAR=1900
DGENRE=Blues
TTITLE0=Trainfare Blues
TTITLE1=I'm Ready
TTITLE2=I Can't Call Her Sugar
TTITLE3=Walkin' Thru The Park
TTITLE4=Sad Letter
TTITLE5=You Can't Lose What You Ain't Never Had
TTITLE6=I Can't Be Satisfied
TTITLE7=Baby Please Don't Go
TTITLE8=Sittin' Here Drinkin'
TTITLE9=I Got A Rich Man's Woman
TTITLE10=Mean Mistreater
TTITLE11=Forty Days And Forty Nights
TTITLE12=Rollin' And Tumblin'
TTITLE13=All Aboard
EXTD=
EXTT0=
EXTT1=
EXTT2=
EXTT3=
EXTT4=
EXTT5=
EXTT6=
EXTT7=
EXTT8=
EXTT9=
EXTT10=
EXTT11=
EXTT12=
EXTT13=
PLAYORDER=
